<svg width="534" height="562" viewBox="0 0 534 562" fill="none" xmlns="http://www.w3.org/2000/svg">
<g id="project-management 1">
<g id="bulb-svg">
<path id="Vector" d="M425.531 342.469H483.938V360.031H425.531V342.469Z" fill="black"/>
<path id="Vector_2" d="M411.848 401.908L422.53 388.415L472.594 432.314L461.913 445.807L411.848 401.908Z" fill="black"/>
<path id="Vector_3" d="M375.469 412.719H392.156V474.188H375.469V412.719Z" fill="black"/>
<path id="Vector_4" d="M23.0093 167.106L89.7577 149.544L93.8029 166.573L27.0545 184.135L23.0093 167.106Z" fill="black"/>
<path id="Vector_5" d="M36.868 77.3992L46.5626 63.1152L104.966 107.02L95.2718 121.304L36.868 77.3992Z" fill="black"/>
<path id="Vector_6" d="M108.36 19.731L124.527 15.3815L141.59 85.6295L125.422 89.979L108.36 19.731Z" fill="black"/>
<g id="second bulb-ring">
<g id="Vector_7">
<mask id="path-7-inside-1" fill="white">
<path d="M238.054 319.567L262.218 302.314L234.549 267.192L210.384 284.446C207.952 286.18 205.034 287.19 202 287.346C198.965 287.502 195.95 286.799 193.335 285.324C190.72 283.85 188.623 281.671 187.309 279.062C185.995 276.453 185.522 273.532 185.951 270.668L190.217 242.212L144.562 236L140.297 264.456C139.868 267.322 138.556 270.002 136.527 272.158C134.497 274.314 131.842 275.849 128.896 276.568C125.951 277.287 122.848 277.158 119.979 276.198C117.11 275.237 114.605 273.489 112.781 271.173L94.6652 248.168L57.7728 274.509L75.8885 297.514C77.7105 299.83 78.7705 302.607 78.9347 305.496C79.099 308.385 78.36 311.256 76.8112 313.745C75.2624 316.234 72.9732 318.231 70.233 319.482C67.4928 320.733 64.4246 321.183 61.4159 320.775L31.5254 316.714L25 360.177L54.8982 364.238C57.908 364.647 60.7227 365.897 62.9864 367.829C65.25 369.762 66.8609 372.29 67.6153 375.093C68.3697 377.897 68.2338 380.851 67.2247 383.582C66.2156 386.312 64.3787 388.696 61.9462 390.433L37.7894 407.686L65.4587 442.808L89.6156 425.561C92.0478 423.825 94.9666 422.813 98.0026 422.656C101.039 422.498 104.056 423.201 106.672 424.676C109.288 426.151 111.386 428.331 112.701 430.941C114.015 433.551 114.487 436.474 114.057 439.339L109.753 467.788L155.407 474L159.711 445.537C160.141 442.672 161.454 439.992 163.484 437.837C165.514 435.682 168.169 434.148 171.114 433.43C174.059 432.712 177.162 432.841 180.03 433.802C182.898 434.763 185.403 436.511 187.227 438.827L205.35 461.825L242.243 435.483L224.112 412.486C222.287 410.17 221.225 407.392 221.059 404.502C220.894 401.611 221.632 398.739 223.181 396.248C224.73 393.758 227.021 391.76 229.762 390.509C232.504 389.257 235.574 388.808 238.584 389.218L268.475 393.286L275 349.823L245.109 345.755C242.101 345.345 239.287 344.096 237.025 342.165C234.762 340.233 233.151 337.707 232.396 334.904C231.641 332.102 231.775 329.149 232.782 326.419C233.789 323.689 235.624 321.305 238.054 319.567ZM150.004 406.215C139.363 406.215 128.961 403.211 120.113 397.583C111.266 391.955 104.37 383.956 100.298 374.597C96.2257 365.238 95.1602 354.94 97.2362 345.004C99.3121 335.069 104.436 325.942 111.96 318.779C119.485 311.616 129.071 306.738 139.508 304.762C149.944 302.785 160.762 303.8 170.593 307.676C180.424 311.553 188.826 318.118 194.738 326.541C200.65 334.964 203.805 344.866 203.805 354.996C203.805 368.58 198.137 381.608 188.047 391.214C177.957 400.819 164.273 406.215 150.004 406.215Z"/>
</mask>
<path d="M238.054 319.567L262.218 302.314L234.549 267.192L210.384 284.446C207.952 286.18 205.034 287.19 202 287.346C198.965 287.502 195.95 286.799 193.335 285.324C190.72 283.85 188.623 281.671 187.309 279.062C185.995 276.453 185.522 273.532 185.951 270.668L190.217 242.212L144.562 236L140.297 264.456C139.868 267.322 138.556 270.002 136.527 272.158C134.497 274.314 131.842 275.849 128.896 276.568C125.951 277.287 122.848 277.158 119.979 276.198C117.11 275.237 114.605 273.489 112.781 271.173L94.6652 248.168L57.7728 274.509L75.8885 297.514C77.7105 299.83 78.7705 302.607 78.9347 305.496C79.099 308.385 78.36 311.256 76.8112 313.745C75.2624 316.234 72.9732 318.231 70.233 319.482C67.4928 320.733 64.4246 321.183 61.4159 320.775L31.5254 316.714L25 360.177L54.8982 364.238C57.908 364.647 60.7227 365.897 62.9864 367.829C65.25 369.762 66.8609 372.29 67.6153 375.093C68.3697 377.897 68.2338 380.851 67.2247 383.582C66.2156 386.312 64.3787 388.696 61.9462 390.433L37.7894 407.686L65.4587 442.808L89.6156 425.561C92.0478 423.825 94.9666 422.813 98.0026 422.656C101.039 422.498 104.056 423.201 106.672 424.676C109.288 426.151 111.386 428.331 112.701 430.941C114.015 433.551 114.487 436.474 114.057 439.339L109.753 467.788L155.407 474L159.711 445.537C160.141 442.672 161.454 439.992 163.484 437.837C165.514 435.682 168.169 434.148 171.114 433.43C174.059 432.712 177.162 432.841 180.03 433.802C182.898 434.763 185.403 436.511 187.227 438.827L205.35 461.825L242.243 435.483L224.112 412.486C222.287 410.17 221.225 407.392 221.059 404.502C220.894 401.611 221.632 398.739 223.181 396.248C224.73 393.758 227.021 391.76 229.762 390.509C232.504 389.257 235.574 388.808 238.584 389.218L268.475 393.286L275 349.823L245.109 345.755C242.101 345.345 239.287 344.096 237.025 342.165C234.762 340.233 233.151 337.707 232.396 334.904C231.641 332.102 231.775 329.149 232.782 326.419C233.789 323.689 235.624 321.305 238.054 319.567ZM150.004 406.215C139.363 406.215 128.961 403.211 120.113 397.583C111.266 391.955 104.37 383.956 100.298 374.597C96.2257 365.238 95.1602 354.94 97.2362 345.004C99.3121 335.069 104.436 325.942 111.96 318.779C119.485 311.616 129.071 306.738 139.508 304.762C149.944 302.785 160.762 303.8 170.593 307.676C180.424 311.553 188.826 318.118 194.738 326.541C200.65 334.964 203.805 344.866 203.805 354.996C203.805 368.58 198.137 381.608 188.047 391.214C177.957 400.819 164.273 406.215 150.004 406.215Z" fill="#10BDE0" stroke="black" stroke-width="20" mask="url(#path-7-inside-1)"/>
</g>
</g>
<g id="Vector_8">
<mask id="path-8-inside-2" fill="white">
<path d="M417.187 219.531C417.185 192.096 410.397 165.135 397.492 141.298C384.587 117.461 366.008 97.5693 343.584 83.5796C321.16 69.5899 295.662 61.9837 269.598 61.5091C243.534 61.0345 217.801 67.7078 194.931 80.8727C172.06 94.0376 152.839 113.241 139.158 136.594C125.477 159.947 117.807 186.645 116.903 214.063C115.998 241.482 121.89 268.676 133.999 292.971C146.108 317.266 164.018 337.826 185.965 352.629C192.801 357.089 198.458 363.291 202.413 370.661C206.368 378.032 208.494 386.332 208.594 394.796V430.281C208.594 437.268 211.231 443.969 215.925 448.909C220.619 453.85 226.986 456.625 233.625 456.625H300.375C307.014 456.625 313.38 453.85 318.075 448.909C322.769 443.969 325.406 437.268 325.406 430.281V395.525C325.511 386.86 327.681 378.361 331.72 370.809C335.758 363.257 341.534 356.894 348.518 352.304C369.6 337.98 386.932 318.322 398.928 295.126C410.925 271.931 417.203 245.94 417.187 219.531V219.531Z"/>
</mask>
<path d="M417.187 219.531C417.185 192.096 410.397 165.135 397.492 141.298C384.587 117.461 366.008 97.5693 343.584 83.5796C321.16 69.5899 295.662 61.9837 269.598 61.5091C243.534 61.0345 217.801 67.7078 194.931 80.8727C172.06 94.0376 152.839 113.241 139.158 136.594C125.477 159.947 117.807 186.645 116.903 214.063C115.998 241.482 121.89 268.676 133.999 292.971C146.108 317.266 164.018 337.826 185.965 352.629C192.801 357.089 198.458 363.291 202.413 370.661C206.368 378.032 208.494 386.332 208.594 394.796V430.281C208.594 437.268 211.231 443.969 215.925 448.909C220.619 453.85 226.986 456.625 233.625 456.625H300.375C307.014 456.625 313.38 453.85 318.075 448.909C322.769 443.969 325.406 437.268 325.406 430.281V395.525C325.511 386.86 327.681 378.361 331.72 370.809C335.758 363.257 341.534 356.894 348.518 352.304C369.6 337.98 386.932 318.322 398.928 295.126C410.925 271.931 417.203 245.94 417.187 219.531V219.531Z" fill="#EAE108" stroke="black" stroke-width="10" mask="url(#path-8-inside-2)"/>
</g>
<g id="first-bulb-ring">
<g id="Vector_9">
<mask id="path-9-inside-3" fill="white">
<path d="M476.438 116.475L504.276 95.5241L472.4 52.8764L444.563 73.8271C441.761 75.9333 438.399 77.1587 434.904 77.3486C431.408 77.5384 427.934 76.6842 424.922 74.8937C421.91 73.1033 419.494 70.4571 417.98 67.2894C416.466 64.1217 415.921 60.5748 416.415 57.0968L421.33 22.5433L368.736 15L363.822 49.5535C363.328 53.0335 361.816 56.2884 359.479 58.9063C357.141 61.5242 354.082 63.3876 350.689 64.2607C347.296 65.1338 343.72 64.9775 340.416 63.8114C337.111 62.6453 334.225 60.5219 332.124 57.7098L311.254 29.7756L268.754 61.7614L289.624 89.6956C291.722 92.5074 292.944 95.8805 293.133 99.3885C293.322 102.897 292.471 106.382 290.686 109.405C288.902 112.428 286.265 114.852 283.108 116.371C279.952 117.89 276.417 118.437 272.951 117.941L238.517 113.01L231 165.786L265.443 170.717C268.91 171.214 272.153 172.732 274.76 175.078C277.368 177.425 279.224 180.494 280.093 183.899C280.962 187.304 280.805 190.891 279.643 194.206C278.48 197.522 276.364 200.417 273.562 202.525L245.733 223.476L277.608 266.124L305.437 245.182C308.239 243.073 311.601 241.845 315.099 241.653C318.597 241.462 322.072 242.316 325.086 244.106C328.1 245.897 330.517 248.545 332.031 251.714C333.546 254.884 334.089 258.433 333.593 261.912L328.635 296.457L381.229 304L386.187 269.438C386.683 265.958 388.195 262.705 390.533 260.088C392.872 257.471 395.931 255.609 399.324 254.737C402.717 253.865 406.291 254.022 409.595 255.188C412.899 256.355 415.784 258.478 417.885 261.29L438.763 289.215L481.263 257.23L460.376 229.304C458.275 226.493 457.051 223.119 456.86 219.609C456.669 216.099 457.52 212.612 459.305 209.587C461.09 206.563 463.728 204.138 466.886 202.618C470.045 201.098 473.581 200.553 477.049 201.05L511.483 205.99L519 153.214L484.566 148.274C481.1 147.777 477.859 146.259 475.252 143.914C472.645 141.569 470.79 138.501 469.92 135.098C469.05 131.695 469.205 128.109 470.365 124.795C471.525 121.48 473.639 118.585 476.438 116.475ZM375.004 221.69C362.746 221.69 350.763 218.042 340.571 211.208C330.378 204.374 322.434 194.661 317.743 183.296C313.052 171.932 311.825 159.427 314.216 147.362C316.608 135.297 322.511 124.215 331.178 115.517C339.846 106.819 350.89 100.896 362.913 98.4961C374.936 96.0963 387.398 97.328 398.723 102.035C410.048 106.743 419.728 114.714 426.538 124.942C433.349 135.17 436.984 147.195 436.984 159.496C436.984 175.991 430.454 191.81 418.83 203.474C407.207 215.137 391.442 221.69 375.004 221.69Z"/>
</mask>
<path d="M476.438 116.475L504.276 95.5241L472.4 52.8764L444.563 73.8271C441.761 75.9333 438.399 77.1587 434.904 77.3486C431.408 77.5384 427.934 76.6842 424.922 74.8937C421.91 73.1033 419.494 70.4571 417.98 67.2894C416.466 64.1217 415.921 60.5748 416.415 57.0968L421.33 22.5433L368.736 15L363.822 49.5535C363.328 53.0335 361.816 56.2884 359.479 58.9063C357.141 61.5242 354.082 63.3876 350.689 64.2607C347.296 65.1338 343.72 64.9775 340.416 63.8114C337.111 62.6453 334.225 60.5219 332.124 57.7098L311.254 29.7756L268.754 61.7614L289.624 89.6956C291.722 92.5074 292.944 95.8805 293.133 99.3885C293.322 102.897 292.471 106.382 290.686 109.405C288.902 112.428 286.265 114.852 283.108 116.371C279.952 117.89 276.417 118.437 272.951 117.941L238.517 113.01L231 165.786L265.443 170.717C268.91 171.214 272.153 172.732 274.76 175.078C277.368 177.425 279.224 180.494 280.093 183.899C280.962 187.304 280.805 190.891 279.643 194.206C278.48 197.522 276.364 200.417 273.562 202.525L245.733 223.476L277.608 266.124L305.437 245.182C308.239 243.073 311.601 241.845 315.099 241.653C318.597 241.462 322.072 242.316 325.086 244.106C328.1 245.897 330.517 248.545 332.031 251.714C333.546 254.884 334.089 258.433 333.593 261.912L328.635 296.457L381.229 304L386.187 269.438C386.683 265.958 388.195 262.705 390.533 260.088C392.872 257.471 395.931 255.609 399.324 254.737C402.717 253.865 406.291 254.022 409.595 255.188C412.899 256.355 415.784 258.478 417.885 261.29L438.763 289.215L481.263 257.23L460.376 229.304C458.275 226.493 457.051 223.119 456.86 219.609C456.669 216.099 457.52 212.612 459.305 209.587C461.09 206.563 463.728 204.138 466.886 202.618C470.045 201.098 473.581 200.553 477.049 201.05L511.483 205.99L519 153.214L484.566 148.274C481.1 147.777 477.859 146.259 475.252 143.914C472.645 141.569 470.79 138.501 469.92 135.098C469.05 131.695 469.205 128.109 470.365 124.795C471.525 121.48 473.639 118.585 476.438 116.475ZM375.004 221.69C362.746 221.69 350.763 218.042 340.571 211.208C330.378 204.374 322.434 194.661 317.743 183.296C313.052 171.932 311.825 159.427 314.216 147.362C316.608 135.297 322.511 124.215 331.178 115.517C339.846 106.819 350.89 100.896 362.913 98.4961C374.936 96.0963 387.398 97.328 398.723 102.035C410.048 106.743 419.728 114.714 426.538 124.942C433.349 135.17 436.984 147.195 436.984 159.496C436.984 175.991 430.454 191.81 418.83 203.474C407.207 215.137 391.442 221.69 375.004 221.69Z" fill="#10BDE0" stroke="black" stroke-width="20" mask="url(#path-9-inside-3)"/>
</g>
</g>
<g id="Vector_10">
<mask id="path-10-inside-4" fill="white">
<path d="M225.281 509.312C225.281 516.299 227.918 523 232.613 527.94C237.307 532.881 243.674 535.656 250.312 535.656H283.688C290.326 535.656 296.693 532.881 301.387 527.94C306.082 523 308.719 516.299 308.719 509.312V456.625H225.281V509.312Z"/>
</mask>
<path d="M225.281 509.312C225.281 516.299 227.918 523 232.613 527.94C237.307 532.881 243.674 535.656 250.312 535.656H283.688C290.326 535.656 296.693 532.881 301.387 527.94C306.082 523 308.719 516.299 308.719 509.312V456.625H225.281V509.312Z" fill="#5B5353" stroke="black" stroke-width="10" mask="url(#path-10-inside-4)"/>
</g>
<rect id="Rectangle 2" x="226" y="502" width="82" height="13" fill="#0C0A0A"/>
<path id="Vector_11" d="M258.656 403.938H275.344V430.281H258.656V403.938Z" fill="black"/>
<path id="Vector_12" d="M230.504 317.697C213.24 310.599 198.186 298.596 187.019 283.026C175.853 267.455 169.013 248.928 167.261 229.508C165.508 210.088 168.912 190.537 177.094 173.033C185.275 155.529 197.913 140.758 213.6 130.366L204.681 115.509C186.386 127.638 171.65 144.873 162.112 165.294C152.574 185.716 148.609 208.523 150.658 231.176C152.707 253.829 160.69 275.439 173.717 293.6C186.745 311.761 204.307 325.76 224.447 334.039C234.51 338.096 243.167 345.271 249.275 354.615C255.383 363.959 258.654 375.033 258.656 386.375H275.344C275.357 371.495 271.077 356.962 263.07 344.699C255.063 332.435 243.707 323.019 230.504 317.697V317.697Z" fill="black"/>
<rect id="Rectangle 1" x="226" y="471" width="83" height="13" fill="#0C0A0A"/>
</g>
</g>
</svg>
